# xmcd CD database file
#
# Track frame offsets:
#	150
#	43875
#	60862
#	96124
#	141589
#	224826
#	279731
#
# Disc length: 4199 seconds
#
# Revision: 0
# Processed by: cddbd v1.5.1PL0 Copyright (c) Steve Scherf et al.
# Submitted via: CDex 1.51
#
DISCID=72106507
DTITLE=Keith Jarrett - The Other Side Of Keith Jarrett
DYEAR=2004
DGENRE=Jazz
TTITLE0=Trieste
TTITLE1=Byablue
TTITLE2=Southern Smiles
TTITLE3=Everything That Lives Laments
TTITLE4=For Yawuh
TTITLE5=De Drums
TTITLE6=Vapallia
EXTD=YEAR: 2004
EXTT0=
EXTT1=
EXTT2=
EXTT3=
EXTT4=
EXTT5=
EXTT6=
PLAYORDER=
